Coordinates
version=1
nRows=12
nColumns=34
inDegrees=yes

Units are S.I. units (second, meters, Newtons, ...)
If the header above contains a line with 'inDegrees', this indicates whether rotational values are in degrees (yes) or radians (no).

endheader
time	pelvis_tilt	pelvis_list	pelvis_rotation	pelvis_tx	pelvis_ty	pelvis_tz	hip_flexion_l	hip_adduction_l	hip_rotation_l	hip_flexion_r	hip_adduction_r	hip_rotation_r	knee_angle_l_beta	knee_angle_r_beta	knee_angle_l	knee_angle_r	ankle_angle_l	ankle_angle_r	subtalar_angle_l	subtalar_angle_r	mtp_angle_l	mtp_angle_r	lumbar_ext	lumbar_bend	lumbar_rota	shoulder_flexion_r	shoulder_adduction_r	shoulder_rotation_r	elbow_flexion_r	shoulder_flexion_l	shoulder_adduction_l	shoulder_rotation_l	elbow_flexion_l
      0.39000000	      9.65533876	      3.21010667	     -1.40029389	      0.17272294	      0.85474608	     -0.24884316	    -12.74104164	     10.56340278	     -1.85810261	     15.42875962	     -8.62050107	     -9.80225676	      0.06794978	      0.92145347	     -3.89323544	    -52.79539459	      9.65896517	      5.77486512	      6.07526624	     13.59368249	    -13.45921156	     -1.69767270	    -22.31632077	     -3.31619875	     -7.74378288	      3.81561457	     -2.14288530	      8.53122964	     27.72846143	     -8.15687067	     -0.95401728	    -18.53507789	     49.47368392
      0.40000000	      9.74876267	      3.02009081	     -1.18425750	      0.18173206	      0.85471871	     -0.24944121	    -13.72078513	     10.33477065	     -2.53418751	     15.81533375	     -8.00621632	     -9.76129490	      0.06122036	      0.87233406	     -3.50766823	    -49.98106016	     10.06780773	      5.96350157	      7.39208913	     13.28592534	    -12.69258420	     -1.67043145	    -22.49111455	     -3.04743399	     -7.60109135	      3.47168744	     -2.15378306	      7.84869687	     28.10642694	     -7.79058429	     -1.07993442	    -18.12332737	     49.99715822
      0.41000000	      9.80822326	      2.83320456	     -0.84179763	      0.19065479	      0.85450839	     -0.25019480	    -14.63551537	     10.10572628	     -2.79396552	     16.09998751	     -7.42695354	     -9.85070015	      0.05576260	      0.81993578	     -3.19496150	    -46.97885943	     10.53025598	      6.11622321	      7.95081698	     13.06921471	    -12.33416321	     -1.77530572	    -22.63192120	     -2.73747979	     -7.65253267	      3.23132775	     -2.14720291	      7.44469678	     28.28213246	     -7.45667722	     -1.22584490	    -17.75327578	     50.48370334
      0.42000000	      9.87787108	      2.70938072	     -0.50149607	      0.19953289	      0.85414119	     -0.25088846	    -15.54865850	      9.93323141	     -2.98085189	     16.28941393	     -6.88684378	     -9.86162879	      0.05065982	      0.76502645	     -2.90259385	    -43.83278675	     10.98284565	      6.15889329	      8.56006353	     12.82395431	    -12.05810138	     -1.92640789	    -22.78368841	     -2.49091930	     -7.74390555	      2.99337141	     -2.11610379	      7.03586226	     28.48849920	     -7.11957714	     -1.37499519	    -17.38443627	     50.92534342
      0.43000000	      9.87273647	      2.65064122	     -0.17314934	      0.20837509	      0.85348369	     -0.25147209	    -16.35575836	      9.82690196	     -3.11094786	     16.48851219	     -6.40726499	     -9.86150635	      0.04629290	      0.70854695	     -2.65238794	    -40.59674997	     11.43752972	      6.20455691	      8.98309410	     12.58672038	    -11.85395473	     -2.11691577	    -22.85471768	     -2.32018325	     -7.86055016	      2.76343991	     -2.04629379	      6.62162331	     28.68118109	     -6.79554344	     -1.54327579	    -16.98481461	     51.34539590
      0.44000000	      9.55372359	      2.91112970	      0.05921863	      0.21694835	      0.85202883	     -0.25191978	    -16.73041647	     10.08789555	     -3.06327775	     17.12544577	     -6.24148926	     -9.50841869	      0.04446431	      0.65496853	     -2.54761749	    -37.52693223	     11.69756230	      6.38426443	      9.09828206	     12.59000269	    -11.79575877	     -2.32564081	    -22.60665878	     -2.51214817	     -8.11650101	      2.62449000	     -1.92902976	      6.46198609	     28.74618228	     -6.54243027	     -1.72990406	    -16.74513856	     51.78617925
      0.45000000	      9.79230746	      2.68395776	      0.53268141	      0.22587048	      0.85161494	     -0.25259422	    -17.79109653	      9.74891937	     -3.01479202	     16.74326922	     -5.61392708	     -9.76964237	      0.04114525	      0.59183955	     -2.35744898	    -33.90990822	     12.31535158	      6.10283355	      9.36767474	     12.06420064	    -11.72133053	     -2.67733356	    -22.93568286	     -2.11096494	     -8.28194679	      2.37699106	     -1.84160248	      5.93988048	     28.98268382	     -6.14452408	     -1.90570210	    -16.23105419	     52.04514685
      0.46000000	      9.73758515	      2.78614826	      0.84722048	      0.23455091	      0.85046196	     -0.25303111	    -18.44326256	      9.79036514	     -2.90972445	     16.79707410	     -5.30406652	     -9.65305029	      0.04041795	      0.53251212	     -2.31577779	    -30.51069729	     12.71932196	      5.97197560	      9.53324239	     11.76201331	    -11.69670184	     -3.03252245	    -22.97702789	     -2.10771469	     -8.46303532	      2.14567579	     -1.69958681	      5.44454771	     29.26651724	     -5.76986380	     -2.08667636	    -15.80944081	     52.27227910
      0.47000000	      9.33442520	      3.29625857	      1.00375413	      0.24325712	      0.84840378	     -0.25333486	    -18.74209628	     10.32909511	     -2.83924780	     17.39157057	     -5.47853794	     -9.36702823	      0.03875017	      0.47995919	     -2.22022111	    -27.49963566	     13.09541638	      6.00812251	      9.55000092	     11.83100627	    -11.65914270	     -3.29320631	    -22.62795098	     -2.59314698	     -8.73105470	      1.95144519	     -1.56234097	      5.34476008	     29.41300661	     -5.49595988	     -2.23251820	    -15.67286531	     52.54548204
      0.48000000	      9.03875117	      3.61109398	      1.21452167	      0.25185251	      0.84654884	     -0.25358128	    -19.05961680	     10.61320566	     -2.64065967	     17.68338132	     -5.41903066	     -9.06969639	      0.04052179	      0.42301865	     -2.32172728	    -24.23718341	     13.45854831	      6.01088177	      9.56684912	     11.74668005	    -11.63035522	     -3.60487358	    -22.43037965	     -2.85225693	     -9.01743764	      1.82424729	     -1.40021061	      5.13812541	     29.56035951	     -5.20445543	     -2.39065065	    -15.44057348	     52.75215957
      0.49000000	      9.60901800	      3.15717515	      1.77252553	      0.26071146	      0.84648148	     -0.25414919	    -20.33817534	      9.91227160	     -2.39439527	     16.54153640	     -4.53766580	     -9.43054017	      0.04285913	      0.35486524	     -2.45564738	    -20.33228056	     14.19730874	      5.08192081	     10.02044990	     10.31945501	    -12.25450942	     -5.35699267	    -23.18404037	     -2.15276950	     -7.98900956	      0.55759161	     -1.20886671	      1.90507620	     31.44670865	     -3.74837597	     -2.65600446	    -13.39682677	     51.75942342
      0.50000000	      9.49920789	      3.34513126	      2.11114342	      0.26941512	      0.84488326	     -0.25452824	    -20.79375401	      9.98337370	     -2.01959986	     16.45747985	     -4.41113317	     -9.48603025	      0.04765641	      0.29815765	     -2.73051123	    -17.08317525	     14.68508536	      4.66883826	      9.92887280	      9.74173918	    -12.20205231	     -5.86447737	    -23.17737104	     -2.22653549	     -8.26400152	      0.41512365	     -1.04203993	      1.62607295	     31.60114401	     -3.34222550	     -2.77869210	    -13.04447065	     51.70001026
